# xmcd CD database file
#
# Track frame offsets:
#	150
#	12955
#	31515
#	49092
#	69910
#	75392
#	94297
#	108672
#	125847
#	159447
#	185940
#	204107
#	214852
#	228647
#	243242
#	258845
#	278442
#	298482
#
# Disc length: 4152 seconds
#
# Revision: 0
# Processed by: cddbd v1.5.2PL0 Copyright (c) Steve Scherf et al.
# Submitted via: CDex 1.51
#
DISCID=fb103612
DTITLE=Morten Gunnar Larsen - Hot Jazz, Pop Jazz and Ragtime
DYEAR=1994
DGENRE=Jazz
TTITLE0=Randi's Rag
TTITLE1=Don't You Leave Me Here
TTITLE2=Toad Stool Rag
TTITLE3=Olympia Rag
TTITLE4=Norsk Rag #4
TTITLE5=Weeping Willow Rag
TTITLE6=The Perfect Sporting House Rag
TTITLE7=The Crave
TTITLE8=Gladialus Rag - Ballad
TTITLE9=Memories Of A Missouri Confederate
TTITLE10=The Pearls
TTITLE11=Rustle Of Spring
TTITLE12=The Giggler
TTITLE13=Mabel's Dream
TTITLE14=Echoes Of Spring
TTITLE15=Graceful Ghost
TTITLE16=Prety Baby
TTITLE17=Oh! You Beautiful Doll
EXTD=YEAR: 1994
EXTT0=
EXTT1=
EXTT2=
EXTT3=
EXTT4=
EXTT5=
EXTT6=
EXTT7=
EXTT8=
EXTT9=
EXTT10=
EXTT11=
EXTT12=
EXTT13=
EXTT14=
EXTT15=
EXTT16=
EXTT17=
PLAYORDER=
